<?xml version="1.0" standalone="no"?>
<!DOCTYPE svg PUBLIC "-//W3C//DTD SVG 20010904//EN"
 "http://www.w3.org/TR/2001/REC-SVG-20010904/DTD/svg10.dtd">
<svg version="1.0" xmlns="http://www.w3.org/2000/svg"
 width="512.000000pt" height="512.000000pt" viewBox="0 0 512.000000 512.000000"
 preserveAspectRatio="xMidYMid meet">

<g transform="translate(0.000000,512.000000) scale(0.100000,-0.100000)"
fill="#000000" stroke="none">
<path d="M1865 5102 c-244 -85 -275 -424 -50 -543 l45 -24 0 -604 0 -604 -644
-1146 c-354 -630 -653 -1165 -665 -1189 -61 -121 -79 -320 -41 -466 62 -243
253 -435 500 -503 61 -17 156 -18 1550 -18 1394 0 1489 1 1550 18 247 68 438
260 500 503 38 146 20 345 -41 466 -12 24 -311 559 -665 1189 l-644 1146 0
604 1 604 51 30 c206 119 188 427 -31 529 -45 21 -54 21 -706 23 -606 2 -664
1 -710 -15z m1362 -214 c38 -39 38 -97 0 -136 -27 -26 -31 -27 -168 -32 l-141
-5 -29 -33 c-40 -45 -39 -84 5 -128 32 -32 38 -34 100 -34 l66 0 0 -623 0
-623 300 -534 c165 -293 300 -534 300 -534 0 -1 -48 0 -107 2 -299 11 -582
-55 -935 -216 -247 -112 -370 -152 -563 -183 -102 -17 -388 -17 -485 0 -105
17 -290 63 -290 71 0 4 176 319 390 700 l390 694 0 623 0 623 66 0 c62 0 68 2
100 34 44 44 45 83 5 128 l-29 33 -141 5 c-137 5 -141 6 -168 33 -49 48 -32
131 32 158 11 4 302 7 647 6 l628 -2 27 -27z"/>
<path d="M2494 3366 c-46 -46 -46 -86 0 -132 25 -24 43 -34 66 -34 23 0 42 10
66 34 25 25 34 43 34 66 0 23 -9 42 -34 66 -24 25 -43 34 -66 34 -23 0 -41 -9
-66 -34z"/>
<path d="M2065 2783 c-211 -76 -272 -336 -115 -493 61 -61 119 -85 210 -85 91
0 149 24 210 85 61 61 85 119 85 210 0 91 -24 149 -85 210 -80 80 -203 109
-305 73z"/>
<path d="M2894 2766 c-24 -24 -34 -43 -34 -66 0 -23 10 -41 34 -66 25 -24 43
-34 66 -34 23 0 42 10 66 34 25 25 34 43 34 66 0 23 -9 42 -34 66 -24 25 -43
34 -66 34 -23 0 -41 -9 -66 -34z"/>
</g>
</svg>
